<?xml version="1.0" encoding="UTF-8" standalone="no"?>
<!DOCTYPE svg PUBLIC "-//W3C//DTD SVG 1.1//EN"
 "http://www.w3.org/Graphics/SVG/1.1/DTD/svg11.dtd">
<!-- Generated by graphviz version 2.44.2~dev.20201112.1525 (20201112.1525)
 -->
<!-- Title: Courses Tree Diagrams Pages: 1 -->
<svg width="1485pt" height="292pt"
 viewBox="0.00 0.00 1485.00 292.00" xmlns="http://www.w3.org/2000/svg" xmlns:xlink="http://www.w3.org/1999/xlink">
<g id="graph0" class="graph" transform="scale(1 1) rotate(0) translate(4 288)">
<title>Courses Tree Diagrams</title>
<polygon fill="white" stroke="transparent" points="-4,4 -4,-288 1481,-288 1481,4 -4,4"/>
<g id="clust1" class="cluster">
<title>Cluster of Courses without any connections</title>
<polygon fill="none" stroke="black" points="383,-224 383,-276 1469,-276 1469,-224 383,-224"/>
</g>
<g id="clust2" class="cluster">
<title>Cluster of Courses with connections</title>
<polygon fill="none" stroke="black" points="8,-8 8,-276 375,-276 375,-8 8,-8"/>
</g>
<!-- ACCT 210 -->
<g id="node1" class="node">
<title>ACCT 210</title>
<ellipse fill="none" stroke="green" cx="265" cy="-178" rx="51.19" ry="18"/>
<text text-anchor="middle" x="265" y="-174.3" font-family="Times New Roman,serif" font-size="14.00">ACCT 210</text>
</g>
<!-- ACCT 300 -->
<g id="node2" class="node">
<title>ACCT 300</title>
<ellipse fill="none" stroke="green" cx="195" cy="-106" rx="51.19" ry="18"/>
<text text-anchor="middle" x="195" y="-102.3" font-family="Times New Roman,serif" font-size="14.00">ACCT 300</text>
</g>
<!-- ACCT 210&#45;&gt;ACCT 300 -->
<g id="edge3" class="edge">
<title>ACCT 210:&#45;&gt;ACCT 300:</title>
<path fill="none" stroke="black" d="M248.76,-160.76C239.75,-151.75 228.39,-140.39 218.43,-130.43"/>
<polygon fill="black" stroke="black" points="220.69,-127.74 211.15,-123.15 215.74,-132.69 220.69,-127.74"/>
</g>
<!-- ACCT 310 -->
<g id="node3" class="node">
<title>ACCT 310</title>
<ellipse fill="none" stroke="green" cx="316" cy="-106" rx="51.19" ry="18"/>
<text text-anchor="middle" x="316" y="-102.3" font-family="Times New Roman,serif" font-size="14.00">ACCT 310</text>
</g>
<!-- ACCT 210&#45;&gt;ACCT 310 -->
<g id="edge4" class="edge">
<title>ACCT 210:&#45;&gt;ACCT 310:</title>
<path fill="none" stroke="black" d="M277.09,-160.41C283.22,-151.99 290.8,-141.58 297.64,-132.2"/>
<polygon fill="black" stroke="black" points="300.59,-134.1 303.65,-123.96 294.93,-129.98 300.59,-134.1"/>
</g>
<!-- ACCT 320 -->
<g id="node5" class="node">
<title>ACCT 320</title>
<ellipse fill="none" stroke="green" cx="133" cy="-34" rx="51.19" ry="18"/>
<text text-anchor="middle" x="133" y="-30.3" font-family="Times New Roman,serif" font-size="14.00">ACCT 320</text>
</g>
<!-- ACCT 300&#45;&gt;ACCT 320 -->
<g id="edge6" class="edge">
<title>ACCT 300:&#45;&gt;ACCT 320:</title>
<path fill="none" stroke="black" d="M180.31,-88.41C172.59,-79.69 162.98,-68.85 154.44,-59.21"/>
<polygon fill="black" stroke="black" points="156.84,-56.64 147.59,-51.47 151.6,-61.28 156.84,-56.64"/>
</g>
<!-- ACCT 311 -->
<g id="node4" class="node">
<title>ACCT 311</title>
<ellipse fill="none" stroke="green" cx="316" cy="-34" rx="51.19" ry="18"/>
<text text-anchor="middle" x="316" y="-30.3" font-family="Times New Roman,serif" font-size="14.00">ACCT 311</text>
</g>
<!-- ACCT 310&#45;&gt;ACCT 311 -->
<g id="edge5" class="edge">
<title>ACCT 310:&#45;&gt;ACCT 311:</title>
<path fill="none" stroke="black" d="M316,-87.7C316,-79.98 316,-70.71 316,-62.11"/>
<polygon fill="black" stroke="black" points="319.5,-62.1 316,-52.1 312.5,-62.1 319.5,-62.1"/>
</g>
<!-- ACCT 301 -->
<g id="node6" class="node">
<title>ACCT 301</title>
<ellipse fill="none" stroke="green" cx="1410" cy="-250" rx="51.19" ry="18"/>
<text text-anchor="middle" x="1410" y="-246.3" font-family="Times New Roman,serif" font-size="14.00">ACCT 301</text>
</g>
<!-- ACCT 400 -->
<g id="node7" class="node">
<title>ACCT 400</title>
<ellipse fill="none" stroke="green" cx="1289" cy="-250" rx="51.19" ry="18"/>
<text text-anchor="middle" x="1289" y="-246.3" font-family="Times New Roman,serif" font-size="14.00">ACCT 400</text>
</g>
<!-- ACCT 410 -->
<g id="node8" class="node">
<title>ACCT 410</title>
<ellipse fill="none" stroke="green" cx="1168" cy="-250" rx="51.19" ry="18"/>
<text text-anchor="middle" x="1168" y="-246.3" font-family="Times New Roman,serif" font-size="14.00">ACCT 410</text>
</g>
<!-- ACCT 411 -->
<g id="node9" class="node">
<title>ACCT 411</title>
<ellipse fill="none" stroke="green" cx="1047" cy="-250" rx="51.19" ry="18"/>
<text text-anchor="middle" x="1047" y="-246.3" font-family="Times New Roman,serif" font-size="14.00">ACCT 411</text>
</g>
<!-- ACCT 420 -->
<g id="node10" class="node">
<title>ACCT 420</title>
<ellipse fill="none" stroke="green" cx="926" cy="-250" rx="51.19" ry="18"/>
<text text-anchor="middle" x="926" y="-246.3" font-family="Times New Roman,serif" font-size="14.00">ACCT 420</text>
</g>
<!-- ACCT 421 -->
<g id="node11" class="node">
<title>ACCT 421</title>
<ellipse fill="none" stroke="green" cx="805" cy="-250" rx="51.19" ry="18"/>
<text text-anchor="middle" x="805" y="-246.3" font-family="Times New Roman,serif" font-size="14.00">ACCT 421</text>
</g>
<!-- ACCT 423 -->
<g id="node12" class="node">
<title>ACCT 423</title>
<ellipse fill="none" stroke="green" cx="684" cy="-250" rx="51.19" ry="18"/>
<text text-anchor="middle" x="684" y="-246.3" font-family="Times New Roman,serif" font-size="14.00">ACCT 423</text>
</g>
<!-- ACCT 470 -->
<g id="node13" class="node">
<title>ACCT 470</title>
<ellipse fill="none" stroke="green" cx="563" cy="-250" rx="51.19" ry="18"/>
<text text-anchor="middle" x="563" y="-246.3" font-family="Times New Roman,serif" font-size="14.00">ACCT 470</text>
</g>
<!-- ACCT 477 -->
<g id="node14" class="node">
<title>ACCT 477</title>
<ellipse fill="none" stroke="green" cx="442" cy="-250" rx="51.19" ry="18"/>
<text text-anchor="middle" x="442" y="-246.3" font-family="Times New Roman,serif" font-size="14.00">ACCT 477</text>
</g>
<!-- ACCT 200 -->
<g id="node15" class="node">
<title>ACCT 200</title>
<ellipse fill="none" stroke="red" cx="230" cy="-250" rx="51.19" ry="18"/>
<text text-anchor="middle" x="230" y="-246.3" font-family="Times New Roman,serif" font-size="14.00">ACCT 200</text>
</g>
<!-- ACCT 200&#45;&gt;ACCT 210 -->
<g id="edge1" class="edge">
<title>ACCT 200:&#45;&gt;ACCT 210:</title>
<path fill="none" stroke="black" d="M238.47,-232.05C242.56,-223.89 247.54,-213.91 252.09,-204.82"/>
<polygon fill="black" stroke="black" points="255.26,-206.3 256.61,-195.79 249,-203.17 255.26,-206.3"/>
</g>
<!-- ACCT 200&#45;&gt;ACCT 300 -->
<g id="edge2" class="edge">
<title>ACCT 200:&#45;&gt;ACCT 300:</title>
<path fill="none" stroke="black" d="M220.16,-231.9C214.8,-221.78 208.55,-208.53 205,-196 199.25,-175.71 196.78,-151.94 195.74,-134.07"/>
<polygon fill="black" stroke="black" points="199.23,-133.87 195.26,-124.05 192.24,-134.2 199.23,-133.87"/>
</g>
<!-- MGMT 305 -->
<g id="node16" class="node">
<title>MGMT 305</title>
<ellipse fill="none" stroke="red" cx="71" cy="-106" rx="54.69" ry="18"/>
<text text-anchor="middle" x="71" y="-102.3" font-family="Times New Roman,serif" font-size="14.00">MGMT 305</text>
</g>
<!-- MGMT 305&#45;&gt;ACCT 320 -->
<g id="edge7" class="edge">
<title>MGMT 305:&#45;&gt;ACCT 320:</title>
<path fill="none" stroke="black" d="M85.69,-88.41C93.41,-79.69 103.02,-68.85 111.56,-59.21"/>
<polygon fill="black" stroke="black" points="114.4,-61.28 118.41,-51.47 109.16,-56.64 114.4,-61.28"/>
</g>
</g>
</svg>
