<?xml version="1.0" encoding="UTF-8" standalone="no"?>
<!DOCTYPE svg PUBLIC "-//W3C//DTD SVG 1.1//EN"
 "http://www.w3.org/Graphics/SVG/1.1/DTD/svg11.dtd">
<!-- Generated by graphviz version 2.44.2~dev.20201112.1525 (20201112.1525)
 -->
<!-- Title: Some Unique Identifier Pages: 1 -->
<svg width="134pt" height="188pt"
 viewBox="0.00 0.00 134.00 188.00" xmlns="http://www.w3.org/2000/svg" xmlns:xlink="http://www.w3.org/1999/xlink">
<g id="graph0" class="graph" transform="scale(1 1) rotate(0) translate(4 184)">
<title>Some Unique Identifier</title>
<polygon fill="white" stroke="transparent" points="-4,4 -4,-184 130,-184 130,4 -4,4"/>
<!-- A -->
<g id="node1" class="node">
<title>A</title>
<ellipse fill="none" stroke="black" cx="27" cy="-162" rx="27" ry="18"/>
<text text-anchor="middle" x="27" y="-158.3" font-family="Times New Roman,serif" font-size="14.00">A</text>
</g>
<!-- B -->
<g id="node2" class="node">
<title>B</title>
<ellipse fill="none" stroke="black" cx="27" cy="-90" rx="27" ry="18"/>
<text text-anchor="middle" x="27" y="-86.3" font-family="Times New Roman,serif" font-size="14.00">B</text>
</g>
<!-- A&#45;&gt;B -->
<g id="edge1" class="edge">
<title>A:&#45;&gt;B:</title>
<path fill="none" stroke="red" d="M27,-143.7C27,-135.98 27,-126.71 27,-118.11"/>
<polygon fill="red" stroke="red" points="30.5,-118.1 27,-108.1 23.5,-118.1 30.5,-118.1"/>
</g>
<!-- C -->
<g id="node3" class="node">
<title>C</title>
<ellipse fill="none" stroke="black" cx="27" cy="-18" rx="27" ry="18"/>
<text text-anchor="middle" x="27" y="-14.3" font-family="Times New Roman,serif" font-size="14.00">C</text>
</g>
<!-- B&#45;&gt;C -->
<g id="edge2" class="edge">
<title>B:&#45;&gt;C:</title>
<path fill="none" stroke="black" d="M21.16,-72.41C20.62,-67.43 20.32,-61.75 20.26,-56"/>
<polygon fill="black" stroke="black" points="27.26,-56.24 21.12,-35.96 13.27,-55.64 27.26,-56.24"/>
</g>
<!-- B&#45;&gt;C -->
<g id="edge3" class="edge">
<title>B:&#45;&gt;C:</title>
<path fill="none" stroke="black" d="M32.84,-72.41C33.7,-64.51 33.95,-54.85 33.59,-45.94"/>
<polygon fill="black" stroke="black" points="37.08,-45.68 32.88,-35.96 30.1,-46.18 37.08,-45.68"/>
</g>
<!-- D -->
<g id="node4" class="node">
<title>D</title>
<ellipse fill="none" stroke="black" cx="99" cy="-162" rx="27" ry="18"/>
<text text-anchor="middle" x="99" y="-158.3" font-family="Times New Roman,serif" font-size="14.00">D</text>
</g>
</g>
</svg>
