<?xml version="1.0" encoding="UTF-8" standalone="no"?>
<!DOCTYPE svg PUBLIC "-//W3C//DTD SVG 1.1//EN"
 "http://www.w3.org/Graphics/SVG/1.1/DTD/svg11.dtd">
<!-- Generated by graphviz version 2.44.2~dev.20201112.1525 (20201112.1525)
 -->
<!-- Title: Courses Tree Diagrams Pages: 1 -->
<svg width="2719pt" height="531pt"
 viewBox="0.00 0.00 2719.00 531.00" xmlns="http://www.w3.org/2000/svg" xmlns:xlink="http://www.w3.org/1999/xlink">
<g id="graph0" class="graph" transform="scale(1 1) rotate(0) translate(4 527)">
<title>Courses Tree Diagrams</title>
<polygon fill="white" stroke="transparent" points="-4,4 -4,-527 2715,-527 2715,4 -4,4"/>
<g id="clust1" class="cluster">
<title>Cluster of Courses without Prereqs</title>
<polygon fill="none" stroke="black" points="8,-440 8,-515 1451,-515 1451,-440 8,-440"/>
<text text-anchor="middle" x="729.5" y="-499.8" font-family="Times New Roman,serif" font-size="14.00">Cluster of Courses without Prereqs</text>
</g>
<g id="clust3" class="cluster">
<title>Cluster of Courses that is not Pre&#45;req to any other courses</title>
<polygon fill="none" stroke="black" points="426,-8 426,-60 1304,-60 1304,-8 426,-8"/>
</g>
<g id="clust4" class="cluster">
<title>Cluster of Courses without any connections</title>
<polygon fill="none" stroke="black" points="1459,-440 1459,-492 2703,-492 2703,-440 1459,-440"/>
</g>
<!-- IT 110 -->
<g id="node1" class="node">
<title>IT 110</title>
<ellipse fill="none" stroke="green" cx="522" cy="-322" rx="35.19" ry="18"/>
<text text-anchor="middle" x="522" y="-318.3" font-family="Times New Roman,serif" font-size="14.00">IT 110</text>
</g>
<!-- IT 210 -->
<g id="node2" class="node">
<title>IT 210</title>
<ellipse fill="none" stroke="green" cx="345" cy="-250" rx="35.19" ry="18"/>
<text text-anchor="middle" x="345" y="-246.3" font-family="Times New Roman,serif" font-size="14.00">IT 210</text>
</g>
<!-- IT 110&#45;&gt;IT 210 -->
<g id="edge5" class="edge">
<title>IT 110:&#45;&gt;IT 210:</title>
<path fill="none" stroke="black" d="M495.12,-310.37C464.75,-298.36 415.17,-278.75 381.36,-265.38"/>
<polygon fill="black" stroke="black" points="382.43,-262.04 371.84,-261.62 379.86,-268.55 382.43,-262.04"/>
</g>
<!-- IT 214 -->
<g id="node3" class="node">
<title>IT 214</title>
<ellipse fill="none" stroke="green" cx="598" cy="-178" rx="35.19" ry="18"/>
<text text-anchor="middle" x="598" y="-174.3" font-family="Times New Roman,serif" font-size="14.00">IT 214</text>
</g>
<!-- IT 210&#45;&gt;IT 214 -->
<g id="edge7" class="edge">
<title>IT 210:&#45;&gt;IT 214:</title>
<path fill="none" stroke="black" d="M372.86,-238.9C379.74,-236.53 387.11,-234.09 394,-232 449.85,-215.08 515.29,-198.68 556.69,-188.71"/>
<polygon fill="black" stroke="black" points="557.77,-192.05 566.68,-186.31 556.14,-185.24 557.77,-192.05"/>
</g>
<!-- IT 340 -->
<g id="node5" class="node">
<title>IT 340</title>
<ellipse fill="none" stroke="green" cx="376" cy="-178" rx="35.19" ry="18"/>
<text text-anchor="middle" x="376" y="-174.3" font-family="Times New Roman,serif" font-size="14.00">IT 340</text>
</g>
<!-- IT 210&#45;&gt;IT 340 -->
<g id="edge15" class="edge">
<title>IT 210:&#45;&gt;IT 340:</title>
<path fill="none" stroke="black" d="M352.5,-232.05C356.08,-223.97 360.45,-214.12 364.44,-205.11"/>
<polygon fill="black" stroke="black" points="367.72,-206.35 368.56,-195.79 361.32,-203.52 367.72,-206.35"/>
</g>
<!-- IT 350 -->
<g id="node6" class="node">
<title>IT 350</title>
<ellipse fill="none" stroke="green" cx="252" cy="-106" rx="35.19" ry="18"/>
<text text-anchor="middle" x="252" y="-102.3" font-family="Times New Roman,serif" font-size="14.00">IT 350</text>
</g>
<!-- IT 210&#45;&gt;IT 350 -->
<g id="edge17" class="edge">
<title>IT 210:&#45;&gt;IT 350:</title>
<path fill="none" stroke="black" d="M334.33,-232.71C318.16,-208.02 287.32,-160.93 268.32,-131.92"/>
<polygon fill="black" stroke="black" points="271.24,-129.98 262.83,-123.54 265.38,-133.82 271.24,-129.98"/>
</g>
<!-- IT 360 -->
<g id="node7" class="node">
<title>IT 360</title>
<ellipse fill="none" stroke="green" cx="464" cy="-178" rx="35.19" ry="18"/>
<text text-anchor="middle" x="464" y="-174.3" font-family="Times New Roman,serif" font-size="14.00">IT 360</text>
</g>
<!-- IT 210&#45;&gt;IT 360 -->
<g id="edge19" class="edge">
<title>IT 210:&#45;&gt;IT 360:</title>
<path fill="none" stroke="black" d="M367.1,-236C385.61,-225.11 412.22,-209.46 432.88,-197.31"/>
<polygon fill="black" stroke="black" points="434.77,-200.26 441.61,-192.17 431.22,-194.22 434.77,-200.26"/>
</g>
<!-- IT 320 -->
<g id="node4" class="node">
<title>IT 320</title>
<ellipse fill="none" stroke="green" cx="909" cy="-34" rx="35.19" ry="18"/>
<text text-anchor="middle" x="909" y="-30.3" font-family="Times New Roman,serif" font-size="14.00">IT 320</text>
</g>
<!-- IT 214&#45;&gt;IT 320 -->
<g id="edge12" class="edge">
<title>IT 214:&#45;&gt;IT 320:</title>
<path fill="none" stroke="black" d="M633.1,-177.29C684.1,-176.09 779.83,-167.61 846,-124 869.47,-108.53 886.91,-81.07 897.42,-60.72"/>
<polygon fill="black" stroke="black" points="900.6,-62.19 901.88,-51.67 894.32,-59.09 900.6,-62.19"/>
</g>
<!-- IT 380 -->
<g id="node8" class="node">
<title>IT 380</title>
<ellipse fill="none" stroke="green" cx="1042" cy="-106" rx="35.19" ry="18"/>
<text text-anchor="middle" x="1042" y="-102.3" font-family="Times New Roman,serif" font-size="14.00">IT 380</text>
</g>
<!-- IT 214&#45;&gt;IT 380 -->
<g id="edge21" class="edge">
<title>IT 214:&#45;&gt;IT 380:</title>
<path fill="none" stroke="black" d="M631.01,-171.8C710.08,-159.33 910.3,-127.76 998.8,-113.81"/>
<polygon fill="black" stroke="black" points="999.44,-117.25 1008.77,-112.24 998.35,-110.34 999.44,-117.25"/>
</g>
<!-- IT 440 -->
<g id="node10" class="node">
<title>IT 440</title>
<ellipse fill="none" stroke="green" cx="802" cy="-106" rx="35.19" ry="18"/>
<text text-anchor="middle" x="802" y="-102.3" font-family="Times New Roman,serif" font-size="14.00">IT 440</text>
</g>
<!-- IT 214&#45;&gt;IT 440 -->
<g id="edge26" class="edge">
<title>IT 214:&#45;&gt;IT 440:</title>
<path fill="none" stroke="black" d="M626.37,-167.27C662.19,-154.97 723.98,-133.77 763.9,-120.07"/>
<polygon fill="black" stroke="black" points="765.22,-123.32 773.55,-116.76 762.95,-116.7 765.22,-123.32"/>
</g>
<!-- IT 460 -->
<g id="node14" class="node">
<title>IT 460</title>
<ellipse fill="none" stroke="green" cx="575" cy="-106" rx="35.19" ry="18"/>
<text text-anchor="middle" x="575" y="-102.3" font-family="Times New Roman,serif" font-size="14.00">IT 460</text>
</g>
<!-- IT 214&#45;&gt;IT 460 -->
<g id="edge38" class="edge">
<title>IT 214:&#45;&gt;IT 460:</title>
<path fill="none" stroke="black" d="M592.43,-160.05C589.8,-152.06 586.61,-142.33 583.67,-133.4"/>
<polygon fill="black" stroke="black" points="586.96,-132.2 580.52,-123.79 580.31,-134.38 586.96,-132.2"/>
</g>
<!-- IT 414 -->
<g id="node9" class="node">
<title>IT 414</title>
<ellipse fill="none" stroke="green" cx="1085" cy="-34" rx="35.19" ry="18"/>
<text text-anchor="middle" x="1085" y="-30.3" font-family="Times New Roman,serif" font-size="14.00">IT 414</text>
</g>
<!-- IT 340&#45;&gt;IT 414 -->
<g id="edge24" class="edge">
<title>IT 340:&#45;&gt;IT 414:</title>
<path fill="none" stroke="black" d="M394.71,-162.32C422.57,-141.42 477.45,-103.87 531,-88 748.66,-23.51 823.2,-123.99 1041,-60 1046.03,-58.52 1051.11,-56.37 1055.94,-53.94"/>
<polygon fill="black" stroke="black" points="1057.78,-56.93 1064.85,-49.04 1054.4,-50.8 1057.78,-56.93"/>
</g>
<!-- IT 340&#45;&gt;IT 440 -->
<g id="edge27" class="edge">
<title>IT 340:&#45;&gt;IT 440:</title>
<path fill="none" stroke="black" d="M402.2,-165.74C407.98,-163.58 414.13,-161.52 420,-160 483.14,-143.66 671.43,-121.49 757.81,-111.83"/>
<polygon fill="black" stroke="black" points="758.27,-115.3 767.82,-110.72 757.5,-108.35 758.27,-115.3"/>
</g>
<!-- IT 483 -->
<g id="node18" class="node">
<title>IT 483</title>
<ellipse fill="none" stroke="green" cx="645" cy="-34" rx="35.19" ry="18"/>
<text text-anchor="middle" x="645" y="-30.3" font-family="Times New Roman,serif" font-size="14.00">IT 483</text>
</g>
<!-- IT 340&#45;&gt;IT 483 -->
<g id="edge49" class="edge">
<title>IT 340:&#45;&gt;IT 483:</title>
<path fill="none" stroke="black" d="M382.06,-160.15C390.4,-139.58 407.46,-105.38 434,-88 496.96,-46.78 530.09,-85.2 601,-60 605.72,-58.32 610.52,-56.15 615.13,-53.79"/>
<polygon fill="black" stroke="black" points="617.16,-56.67 624.24,-48.78 613.79,-50.54 617.16,-56.67"/>
</g>
<!-- IT 442 -->
<g id="node11" class="node">
<title>IT 442</title>
<ellipse fill="none" stroke="green" cx="733" cy="-34" rx="35.19" ry="18"/>
<text text-anchor="middle" x="733" y="-30.3" font-family="Times New Roman,serif" font-size="14.00">IT 442</text>
</g>
<!-- IT 350&#45;&gt;IT 442 -->
<g id="edge30" class="edge">
<title>IT 350:&#45;&gt;IT 442:</title>
<path fill="none" stroke="black" d="M278.86,-94.27C285.96,-91.82 293.68,-89.51 301,-88 470.34,-53.14 523.54,-110.16 689,-60 694.02,-58.48 699.09,-56.31 703.92,-53.87"/>
<polygon fill="black" stroke="black" points="705.76,-56.85 712.82,-48.96 702.38,-50.72 705.76,-56.85"/>
</g>
<!-- IT 450 -->
<g id="node13" class="node">
<title>IT 450</title>
<ellipse fill="none" stroke="green" cx="469" cy="-34" rx="35.19" ry="18"/>
<text text-anchor="middle" x="469" y="-30.3" font-family="Times New Roman,serif" font-size="14.00">IT 450</text>
</g>
<!-- IT 350&#45;&gt;IT 450 -->
<g id="edge36" class="edge">
<title>IT 350:&#45;&gt;IT 450:</title>
<path fill="none" stroke="black" d="M280.2,-95.06C287,-92.71 294.25,-90.24 301,-88 345,-73.43 395.78,-57.54 429.89,-46.99"/>
<polygon fill="black" stroke="black" points="430.96,-50.33 439.48,-44.03 428.89,-43.64 430.96,-50.33"/>
</g>
<!-- IT 462 -->
<g id="node15" class="node">
<title>IT 462</title>
<ellipse fill="none" stroke="green" cx="557" cy="-34" rx="35.19" ry="18"/>
<text text-anchor="middle" x="557" y="-30.3" font-family="Times New Roman,serif" font-size="14.00">IT 462</text>
</g>
<!-- IT 350&#45;&gt;IT 462 -->
<g id="edge41" class="edge">
<title>IT 350:&#45;&gt;IT 462:</title>
<path fill="none" stroke="black" d="M279.18,-94.47C286.21,-92.06 293.82,-89.7 301,-88 393.48,-66.09 422.9,-90.26 513,-60 517.75,-58.41 522.56,-56.28 527.18,-53.94"/>
<polygon fill="black" stroke="black" points="529.21,-56.82 536.29,-48.94 525.84,-50.69 529.21,-56.82"/>
</g>
<!-- IT 360&#45;&gt;IT 460 -->
<g id="edge39" class="edge">
<title>IT 360:&#45;&gt;IT 460:</title>
<path fill="none" stroke="black" d="M485.4,-163.5C502.37,-152.8 526.28,-137.72 545.13,-125.83"/>
<polygon fill="black" stroke="black" points="547.07,-128.75 553.66,-120.46 543.34,-122.83 547.07,-128.75"/>
</g>
<!-- IT 480 -->
<g id="node16" class="node">
<title>IT 480</title>
<ellipse fill="none" stroke="green" cx="1173" cy="-34" rx="35.19" ry="18"/>
<text text-anchor="middle" x="1173" y="-30.3" font-family="Times New Roman,serif" font-size="14.00">IT 480</text>
</g>
<!-- IT 380&#45;&gt;IT 480 -->
<g id="edge44" class="edge">
<title>IT 380:&#45;&gt;IT 480:</title>
<path fill="none" stroke="black" d="M1066.14,-92.84C1083.67,-83.92 1107.92,-71.43 1129,-60 1133.02,-57.82 1137.22,-55.49 1141.37,-53.17"/>
<polygon fill="black" stroke="black" points="1143.27,-56.11 1150.26,-48.15 1139.83,-50.02 1143.27,-56.11"/>
</g>
<!-- IT 482 -->
<g id="node17" class="node">
<title>IT 482</title>
<ellipse fill="none" stroke="green" cx="1261" cy="-34" rx="35.19" ry="18"/>
<text text-anchor="middle" x="1261" y="-30.3" font-family="Times New Roman,serif" font-size="14.00">IT 482</text>
</g>
<!-- IT 380&#45;&gt;IT 482 -->
<g id="edge46" class="edge">
<title>IT 380:&#45;&gt;IT 482:</title>
<path fill="none" stroke="black" d="M1074.75,-99.28C1110.54,-92.41 1169.16,-79.34 1217,-60 1221.55,-58.16 1226.2,-55.94 1230.7,-53.58"/>
<polygon fill="black" stroke="black" points="1232.58,-56.54 1239.64,-48.64 1229.19,-50.42 1232.58,-56.54"/>
</g>
<!-- IT 484 -->
<g id="node19" class="node">
<title>IT 484</title>
<ellipse fill="none" stroke="green" cx="997" cy="-34" rx="35.19" ry="18"/>
<text text-anchor="middle" x="997" y="-30.3" font-family="Times New Roman,serif" font-size="14.00">IT 484</text>
</g>
<!-- IT 380&#45;&gt;IT 484 -->
<g id="edge50" class="edge">
<title>IT 380:&#45;&gt;IT 484:</title>
<path fill="none" stroke="black" d="M1031.56,-88.76C1026.13,-80.32 1019.37,-69.8 1013.27,-60.31"/>
<polygon fill="black" stroke="black" points="1016.04,-58.15 1007.69,-51.63 1010.16,-61.94 1016.04,-58.15"/>
</g>
<!-- IT 440&#45;&gt;IT 442 -->
<g id="edge31" class="edge">
<title>IT 440:&#45;&gt;IT 442:</title>
<path fill="none" stroke="black" d="M786.69,-89.46C777.49,-80.13 765.61,-68.09 755.38,-57.7"/>
<polygon fill="black" stroke="black" points="757.78,-55.16 748.27,-50.49 752.8,-60.07 757.78,-55.16"/>
</g>
<!-- IT 444 -->
<g id="node12" class="node">
<title>IT 444</title>
<ellipse fill="none" stroke="green" cx="821" cy="-34" rx="35.19" ry="18"/>
<text text-anchor="middle" x="821" y="-30.3" font-family="Times New Roman,serif" font-size="14.00">IT 444</text>
</g>
<!-- IT 440&#45;&gt;IT 444 -->
<g id="edge34" class="edge">
<title>IT 440:&#45;&gt;IT 444:</title>
<path fill="none" stroke="black" d="M806.6,-88.05C808.71,-80.26 811.28,-70.82 813.65,-62.08"/>
<polygon fill="black" stroke="black" points="817.07,-62.84 816.31,-52.28 810.31,-61.01 817.07,-62.84"/>
</g>
<!-- IT 460&#45;&gt;IT 462 -->
<g id="edge42" class="edge">
<title>IT 460:&#45;&gt;IT 462:</title>
<path fill="none" stroke="black" d="M570.64,-88.05C568.64,-80.26 566.21,-70.82 563.96,-62.08"/>
<polygon fill="black" stroke="black" points="567.32,-61.09 561.44,-52.28 560.54,-62.83 567.32,-61.09"/>
</g>
<!-- MATH 121 -->
<g id="node20" class="node">
<title>MATH 121</title>
<ellipse fill="none" stroke="green" cx="603" cy="-394" rx="52.79" ry="18"/>
<text text-anchor="middle" x="603" y="-390.3" font-family="Times New Roman,serif" font-size="14.00">MATH 121</text>
</g>
<!-- MATH 121&#45;&gt;IT 110 -->
<g id="edge3" class="edge">
<title>MATH 121:&#45;&gt;IT 110:</title>
<path fill="none" stroke="black" d="M584.62,-377.12C573.44,-367.45 559.01,-354.99 546.83,-344.46"/>
<polygon fill="black" stroke="black" points="549.05,-341.75 539.2,-337.86 544.48,-347.05 549.05,-341.75"/>
</g>
<!-- MATH 121&#45;&gt;IT 214 -->
<g id="edge8" class="edge">
<title>MATH 121:&#45;&gt;IT 214:</title>
<path fill="none" stroke="black" d="M602.6,-375.85C601.73,-338.83 599.69,-251.18 598.64,-206.39"/>
<polygon fill="black" stroke="black" points="602.14,-206.15 598.4,-196.23 595.14,-206.31 602.14,-206.15"/>
</g>
<!-- MATH 180 -->
<g id="node21" class="node">
<title>MATH 180</title>
<ellipse fill="none" stroke="green" cx="679" cy="-250" rx="52.79" ry="18"/>
<text text-anchor="middle" x="679" y="-246.3" font-family="Times New Roman,serif" font-size="14.00">MATH 180</text>
</g>
<!-- MATH 180&#45;&gt;IT 214 -->
<g id="edge9" class="edge">
<title>MATH 180:&#45;&gt;IT 214:</title>
<path fill="none" stroke="black" d="M660.62,-233.12C649.44,-223.45 635.01,-210.99 622.83,-200.46"/>
<polygon fill="black" stroke="black" points="625.05,-197.75 615.2,-193.86 620.48,-203.05 625.05,-197.75"/>
</g>
<!-- MATH 180&#45;&gt;IT 320 -->
<g id="edge13" class="edge">
<title>MATH 180:&#45;&gt;IT 320:</title>
<path fill="none" stroke="black" d="M712.55,-236.04C756.29,-217.52 832.47,-179.48 877,-124 891.48,-105.96 899.72,-80.81 904.19,-61.85"/>
<polygon fill="black" stroke="black" points="907.62,-62.55 906.31,-52.04 900.78,-61.08 907.62,-62.55"/>
</g>
<!-- ENG 101 -->
<g id="node22" class="node">
<title>ENG 101</title>
<ellipse fill="none" stroke="green" cx="2650" cy="-466" rx="44.69" ry="18"/>
<text text-anchor="middle" x="2650" y="-462.3" font-family="Times New Roman,serif" font-size="14.00">ENG 101</text>
</g>
<!-- IT 310 -->
<g id="node23" class="node">
<title>IT 310</title>
<ellipse fill="none" stroke="green" cx="1204" cy="-466" rx="35.19" ry="18"/>
<text text-anchor="middle" x="1204" y="-462.3" font-family="Times New Roman,serif" font-size="14.00">IT 310</text>
</g>
<!-- IT 310&#45;&gt;IT 414 -->
<g id="edge23" class="edge">
<title>IT 310:&#45;&gt;IT 414:</title>
<path fill="none" stroke="black" d="M1195.5,-448.44C1182.97,-422.45 1161,-370.14 1161,-323 1161,-323 1161,-323 1161,-177 1161,-130.63 1129.1,-84.74 1106.64,-58.18"/>
<polygon fill="black" stroke="black" points="1109.22,-55.81 1100.02,-50.57 1103.94,-60.41 1109.22,-55.81"/>
</g>
<!-- IT 311 -->
<g id="node24" class="node">
<title>IT 311</title>
<ellipse fill="none" stroke="green" cx="2552" cy="-466" rx="35.19" ry="18"/>
<text text-anchor="middle" x="2552" y="-462.3" font-family="Times New Roman,serif" font-size="14.00">IT 311</text>
</g>
<!-- IT 412 -->
<g id="node25" class="node">
<title>IT 412</title>
<ellipse fill="none" stroke="green" cx="2464" cy="-466" rx="35.19" ry="18"/>
<text text-anchor="middle" x="2464" y="-462.3" font-family="Times New Roman,serif" font-size="14.00">IT 412</text>
</g>
<!-- IT 430 -->
<g id="node26" class="node">
<title>IT 430</title>
<ellipse fill="none" stroke="green" cx="2376" cy="-466" rx="35.19" ry="18"/>
<text text-anchor="middle" x="2376" y="-462.3" font-family="Times New Roman,serif" font-size="14.00">IT 430</text>
</g>
<!-- IT 432 -->
<g id="node27" class="node">
<title>IT 432</title>
<ellipse fill="none" stroke="green" cx="2288" cy="-466" rx="35.19" ry="18"/>
<text text-anchor="middle" x="2288" y="-462.3" font-family="Times New Roman,serif" font-size="14.00">IT 432</text>
</g>
<!-- IT 464 -->
<g id="node28" class="node">
<title>IT 464</title>
<ellipse fill="none" stroke="green" cx="2200" cy="-466" rx="35.19" ry="18"/>
<text text-anchor="middle" x="2200" y="-462.3" font-family="Times New Roman,serif" font-size="14.00">IT 464</text>
</g>
<!-- IT 488 -->
<g id="node29" class="node">
<title>IT 488</title>
<ellipse fill="none" stroke="green" cx="2112" cy="-466" rx="35.19" ry="18"/>
<text text-anchor="middle" x="2112" y="-462.3" font-family="Times New Roman,serif" font-size="14.00">IT 488</text>
</g>
<!-- IT 496 -->
<g id="node30" class="node">
<title>IT 496</title>
<ellipse fill="none" stroke="green" cx="2024" cy="-466" rx="35.19" ry="18"/>
<text text-anchor="middle" x="2024" y="-462.3" font-family="Times New Roman,serif" font-size="14.00">IT 496</text>
</g>
<!-- IT 497 -->
<g id="node31" class="node">
<title>IT 497</title>
<ellipse fill="none" stroke="green" cx="1936" cy="-466" rx="35.19" ry="18"/>
<text text-anchor="middle" x="1936" y="-462.3" font-family="Times New Roman,serif" font-size="14.00">IT 497</text>
</g>
<!-- IT 499 -->
<g id="node32" class="node">
<title>IT 499</title>
<ellipse fill="none" stroke="green" cx="1848" cy="-466" rx="35.19" ry="18"/>
<text text-anchor="middle" x="1848" y="-462.3" font-family="Times New Roman,serif" font-size="14.00">IT 499</text>
</g>
<!-- SPEE 100 -->
<g id="node33" class="node">
<title>SPEE 100</title>
<ellipse fill="none" stroke="green" cx="1747" cy="-466" rx="48.19" ry="18"/>
<text text-anchor="middle" x="1747" y="-462.3" font-family="Times New Roman,serif" font-size="14.00">SPEE 100</text>
</g>
<!-- SPEE 233 -->
<g id="node34" class="node">
<title>SPEE 233</title>
<ellipse fill="none" stroke="green" cx="1633" cy="-466" rx="48.19" ry="18"/>
<text text-anchor="middle" x="1633" y="-462.3" font-family="Times New Roman,serif" font-size="14.00">SPEE 233</text>
</g>
<!-- STAT 154 -->
<g id="node35" class="node">
<title>STAT 154</title>
<ellipse fill="none" stroke="green" cx="1517" cy="-466" rx="50.09" ry="18"/>
<text text-anchor="middle" x="1517" y="-462.3" font-family="Times New Roman,serif" font-size="14.00">STAT 154</text>
</g>
<!-- MATH 112 -->
<g id="node36" class="node">
<title>MATH 112</title>
<ellipse fill="none" stroke="red" cx="768" cy="-466" rx="52.79" ry="18"/>
<text text-anchor="middle" x="768" y="-462.3" font-family="Times New Roman,serif" font-size="14.00">MATH 112</text>
</g>
<!-- MATH 112&#45;&gt;IT 110 -->
<g id="edge1" class="edge">
<title>MATH 112:&#45;&gt;IT 110:</title>
<path fill="none" stroke="black" d="M749.71,-448.9C721.4,-424.02 669.7,-378.78 665,-376 632.54,-356.82 591.95,-342.58 562.31,-333.71"/>
<polygon fill="black" stroke="black" points="563.29,-330.35 552.71,-330.92 561.33,-337.07 563.29,-330.35"/>
</g>
<!-- MATH 112&#45;&gt;MATH 121 -->
<g id="edge52" class="edge">
<title>MATH 112:&#45;&gt;MATH 121:</title>
<path fill="none" stroke="black" d="M736.19,-451.5C709.94,-440.37 672.51,-424.49 644.01,-412.4"/>
<polygon fill="black" stroke="black" points="645.29,-409.14 634.72,-408.46 642.55,-415.58 645.29,-409.14"/>
</g>
<!-- MATH 112&#45;&gt;MATH 180 -->
<g id="edge54" class="edge">
<title>MATH 112:&#45;&gt;MATH 180:</title>
<path fill="none" stroke="black" d="M760.87,-447.85C745.34,-410.5 708.37,-321.63 689.9,-277.21"/>
<polygon fill="black" stroke="black" points="693.11,-275.82 686.04,-267.94 686.65,-278.51 693.11,-275.82"/>
</g>
<!-- MATH 115 -->
<g id="node37" class="node">
<title>MATH 115</title>
<ellipse fill="none" stroke="red" cx="522" cy="-466" rx="52.79" ry="18"/>
<text text-anchor="middle" x="522" y="-462.3" font-family="Times New Roman,serif" font-size="14.00">MATH 115</text>
</g>
<!-- MATH 115&#45;&gt;IT 110 -->
<g id="edge2" class="edge">
<title>MATH 115:&#45;&gt;IT 110:</title>
<path fill="none" stroke="black" d="M522,-447.87C522,-423.67 522,-379.21 522,-350.39"/>
<polygon fill="black" stroke="black" points="525.5,-350.19 522,-340.19 518.5,-350.19 525.5,-350.19"/>
</g>
<!-- MATH 115&#45;&gt;MATH 121 -->
<g id="edge51" class="edge">
<title>MATH 115:&#45;&gt;MATH 121:</title>
<path fill="none" stroke="black" d="M540.38,-449.12C551.07,-439.87 564.74,-428.07 576.57,-417.84"/>
<polygon fill="black" stroke="black" points="579.13,-420.25 584.41,-411.06 574.56,-414.95 579.13,-420.25"/>
</g>
<!-- MATH 181 -->
<g id="node38" class="node">
<title>MATH 181</title>
<ellipse fill="none" stroke="red" cx="399" cy="-466" rx="52.79" ry="18"/>
<text text-anchor="middle" x="399" y="-462.3" font-family="Times New Roman,serif" font-size="14.00">MATH 181</text>
</g>
<!-- MATH 181&#45;&gt;IT 110 -->
<g id="edge4" class="edge">
<title>MATH 181:&#45;&gt;IT 110:</title>
<path fill="none" stroke="black" d="M419.64,-449.21C432.03,-439.23 447.72,-425.67 460,-412 478.06,-391.9 495.36,-366.36 507.07,-347.8"/>
<polygon fill="black" stroke="black" points="510.04,-349.65 512.35,-339.31 504.1,-345.95 510.04,-349.65"/>
</g>
<!-- MATH 181&#45;&gt;IT 214 -->
<g id="edge10" class="edge">
<title>MATH 181:&#45;&gt;IT 214:</title>
<path fill="none" stroke="black" d="M406.48,-448.11C422.54,-412.17 460.28,-329.32 478,-304 506.14,-263.79 547.14,-224.07 573.19,-200.54"/>
<polygon fill="black" stroke="black" points="575.63,-203.05 580.76,-193.78 570.97,-197.83 575.63,-203.05"/>
</g>
<!-- ISYS 110 -->
<g id="node39" class="node">
<title>ISYS 110</title>
<ellipse fill="none" stroke="red" cx="282" cy="-466" rx="46.29" ry="18"/>
<text text-anchor="middle" x="282" y="-462.3" font-family="Times New Roman,serif" font-size="14.00">ISYS 110</text>
</g>
<!-- ISYS 110&#45;&gt;IT 210 -->
<g id="edge6" class="edge">
<title>ISYS 110:&#45;&gt;IT 210:</title>
<path fill="none" stroke="black" d="M287.05,-447.85C298,-410.66 323.99,-322.37 337.12,-277.77"/>
<polygon fill="black" stroke="black" points="340.55,-278.52 340.01,-267.94 333.83,-276.54 340.55,-278.52"/>
</g>
<!-- ISYS 210 -->
<g id="node40" class="node">
<title>ISYS 210</title>
<ellipse fill="none" stroke="red" cx="172" cy="-466" rx="46.29" ry="18"/>
<text text-anchor="middle" x="172" y="-462.3" font-family="Times New Roman,serif" font-size="14.00">ISYS 210</text>
</g>
<!-- ISYS 210&#45;&gt;IT 214 -->
<g id="edge11" class="edge">
<title>ISYS 210:&#45;&gt;IT 214:</title>
<path fill="none" stroke="black" d="M197.98,-450.93C216.45,-440.67 241.67,-426.14 263,-412 374.13,-338.32 391.19,-304.64 503,-232 523.05,-218.97 546.51,-205.87 565.09,-195.95"/>
<polygon fill="black" stroke="black" points="566.85,-198.98 574.06,-191.21 563.58,-192.79 566.85,-198.98"/>
</g>
<!-- ISYS 210&#45;&gt;IT 340 -->
<g id="edge16" class="edge">
<title>ISYS 210:&#45;&gt;IT 340:</title>
<path fill="none" stroke="black" d="M190.3,-448.97C200.41,-439.21 212.41,-425.96 220,-412 259.57,-339.27 215.45,-295.98 268,-232 285.17,-211.1 312.6,-197.78 335.52,-189.72"/>
<polygon fill="black" stroke="black" points="336.63,-193.04 345.03,-186.59 334.44,-186.4 336.63,-193.04"/>
</g>
<!-- ISYS 210&#45;&gt;IT 350 -->
<g id="edge18" class="edge">
<title>ISYS 210:&#45;&gt;IT 350:</title>
<path fill="none" stroke="black" d="M178.88,-447.83C188.82,-421.44 206,-369.14 206,-323 206,-323 206,-323 206,-249 206,-206.58 224.81,-160.35 238.37,-132.52"/>
<polygon fill="black" stroke="black" points="241.55,-133.99 242.91,-123.49 235.3,-130.85 241.55,-133.99"/>
</g>
<!-- ISYS 210&#45;&gt;IT 360 -->
<g id="edge20" class="edge">
<title>ISYS 210:&#45;&gt;IT 360:</title>
<path fill="none" stroke="black" d="M197.01,-450.65C211.37,-441.28 228.73,-427.86 240,-412 288.92,-343.14 240.29,-290.74 301,-232 340.71,-193.58 367.75,-213.97 420,-196 422.53,-195.13 425.12,-194.21 427.73,-193.26"/>
<polygon fill="black" stroke="black" points="428.98,-196.53 437.12,-189.75 426.53,-189.97 428.98,-196.53"/>
</g>
<!-- ISYS 215 -->
<g id="node41" class="node">
<title>ISYS 215</title>
<ellipse fill="none" stroke="red" cx="995" cy="-466" rx="46.29" ry="18"/>
<text text-anchor="middle" x="995" y="-462.3" font-family="Times New Roman,serif" font-size="14.00">ISYS 215</text>
</g>
<!-- ISYS 215&#45;&gt;IT 320 -->
<g id="edge14" class="edge">
<title>ISYS 215:&#45;&gt;IT 320:</title>
<path fill="none" stroke="black" d="M991.84,-448.02C987.18,-421.45 979,-368.4 979,-323 979,-323 979,-323 979,-177 979,-131.61 949.88,-85.7 929.2,-58.82"/>
<polygon fill="black" stroke="black" points="931.78,-56.45 922.83,-50.78 926.3,-60.8 931.78,-56.45"/>
</g>
<!-- ISYS 215&#45;&gt;IT 380 -->
<g id="edge22" class="edge">
<title>ISYS 215:&#45;&gt;IT 380:</title>
<path fill="none" stroke="black" d="M999.45,-447.65C1005.88,-421.02 1017,-368.4 1017,-323 1017,-323 1017,-323 1017,-249 1017,-208.38 1027.04,-162.2 1034.4,-133.83"/>
<polygon fill="black" stroke="black" points="1037.86,-134.44 1037.06,-123.88 1031.1,-132.64 1037.86,-134.44"/>
</g>
<!-- ISYS 215&#45;&gt;IT 440 -->
<g id="edge29" class="edge">
<title>ISYS 215:&#45;&gt;IT 440:</title>
<path fill="none" stroke="black" d="M985.44,-448.35C979.49,-437.94 971.73,-424.23 965,-412 908.33,-308.99 842.99,-185.12 815.4,-132.57"/>
<polygon fill="black" stroke="black" points="818.44,-130.84 810.69,-123.61 812.24,-134.09 818.44,-130.84"/>
</g>
<!-- ISYS 215&#45;&gt;IT 460 -->
<g id="edge40" class="edge">
<title>ISYS 215:&#45;&gt;IT 460:</title>
<path fill="none" stroke="black" d="M978.56,-448.88C938.87,-410.18 834.16,-309.49 741,-232 694.15,-193.03 636.86,-151.07 603.3,-127.03"/>
<polygon fill="black" stroke="black" points="605.07,-123.99 594.9,-121.03 601,-129.69 605.07,-123.99"/>
</g>
<!-- ISYS 340 -->
<g id="node42" class="node">
<title>ISYS 340</title>
<ellipse fill="none" stroke="red" cx="1105" cy="-466" rx="46.29" ry="18"/>
<text text-anchor="middle" x="1105" y="-462.3" font-family="Times New Roman,serif" font-size="14.00">ISYS 340</text>
</g>
<!-- ISYS 340&#45;&gt;IT 414 -->
<g id="edge25" class="edge">
<title>ISYS 340:&#45;&gt;IT 414:</title>
<path fill="none" stroke="black" d="M1105,-447.95C1105,-421.29 1105,-368.11 1105,-323 1105,-323 1105,-323 1105,-177 1105,-136.6 1096.96,-90.36 1091.08,-61.92"/>
<polygon fill="black" stroke="black" points="1094.46,-60.99 1088.95,-51.94 1087.61,-62.45 1094.46,-60.99"/>
</g>
<!-- ISYS 340&#45;&gt;IT 440 -->
<g id="edge28" class="edge">
<title>ISYS 340:&#45;&gt;IT 440:</title>
<path fill="none" stroke="black" d="M1092.04,-448.43C1055.54,-401.98 948.33,-266.88 853,-160 843.97,-149.87 833.65,-139.02 824.67,-129.8"/>
<polygon fill="black" stroke="black" points="826.99,-127.17 817.49,-122.48 821.99,-132.07 826.99,-127.17"/>
</g>
<!-- ISYS 441 -->
<g id="node43" class="node">
<title>ISYS 441</title>
<ellipse fill="none" stroke="red" cx="885" cy="-466" rx="46.29" ry="18"/>
<text text-anchor="middle" x="885" y="-462.3" font-family="Times New Roman,serif" font-size="14.00">ISYS 441</text>
</g>
<!-- ISYS 441&#45;&gt;IT 442 -->
<g id="edge32" class="edge">
<title>ISYS 441:&#45;&gt;IT 442:</title>
<path fill="none" stroke="black" d="M875.03,-448.09C861.44,-424.5 836.95,-380.1 821,-340 784.05,-247.08 785.52,-220.14 758,-124 752.02,-103.1 745.37,-79.41 740.43,-61.73"/>
<polygon fill="black" stroke="black" points="743.8,-60.77 737.74,-52.08 737.06,-62.65 743.8,-60.77"/>
</g>
<!-- ISYS 441&#45;&gt;IT 444 -->
<g id="edge35" class="edge">
<title>ISYS 441:&#45;&gt;IT 444:</title>
<path fill="none" stroke="black" d="M885.26,-447.71C885.63,-393.54 883.55,-222.69 846,-88 843.42,-78.74 839.34,-69.1 835.22,-60.62"/>
<polygon fill="black" stroke="black" points="838.29,-58.94 830.63,-51.62 832.05,-62.12 838.29,-58.94"/>
</g>
<!-- ISYS 350 -->
<g id="node44" class="node">
<title>ISYS 350</title>
<ellipse fill="none" stroke="red" cx="62" cy="-466" rx="46.29" ry="18"/>
<text text-anchor="middle" x="62" y="-462.3" font-family="Times New Roman,serif" font-size="14.00">ISYS 350</text>
</g>
<!-- ISYS 350&#45;&gt;IT 442 -->
<g id="edge33" class="edge">
<title>ISYS 350:&#45;&gt;IT 442:</title>
<path fill="none" stroke="black" d="M80.69,-449.47C92.33,-439.37 107.25,-425.6 119,-412 182.51,-338.49 177,-303.28 243,-232 277.57,-194.67 290.36,-189.24 332,-160 382.59,-124.48 392.53,-108.07 451,-88 551.74,-53.43 587.8,-93.19 689,-60 693.99,-58.36 699.04,-56.13 703.86,-53.67"/>
<polygon fill="black" stroke="black" points="705.7,-56.65 712.76,-48.75 702.31,-50.53 705.7,-56.65"/>
</g>
<!-- ISYS 350&#45;&gt;IT 450 -->
<g id="edge37" class="edge">
<title>ISYS 350:&#45;&gt;IT 450:</title>
<path fill="none" stroke="black" d="M64.96,-448.01C69.33,-421.43 77,-368.37 77,-323 77,-323 77,-323 77,-177 77,-135.11 75.71,-114.68 108,-88 155.28,-48.92 337.64,-38.64 423.63,-35.95"/>
<polygon fill="black" stroke="black" points="423.98,-39.44 433.87,-35.65 423.77,-32.44 423.98,-39.44"/>
</g>
<!-- ISYS 350&#45;&gt;IT 462 -->
<g id="edge43" class="edge">
<title>ISYS 350:&#45;&gt;IT 462:</title>
<path fill="none" stroke="black" d="M74.14,-448.47C91.67,-422.93 122,-371.71 122,-323 122,-323 122,-323 122,-177 122,-121.99 158.4,-111.78 208,-88 330.75,-29.15 383.12,-100.76 513,-60 518.01,-58.43 523.07,-56.23 527.89,-53.78"/>
<polygon fill="black" stroke="black" points="529.73,-56.77 536.8,-48.87 526.35,-50.64 529.73,-56.77"/>
</g>
<!-- ISYS 380 -->
<g id="node45" class="node">
<title>ISYS 380</title>
<ellipse fill="none" stroke="red" cx="1303" cy="-466" rx="46.29" ry="18"/>
<text text-anchor="middle" x="1303" y="-462.3" font-family="Times New Roman,serif" font-size="14.00">ISYS 380</text>
</g>
<!-- ISYS 380&#45;&gt;IT 480 -->
<g id="edge45" class="edge">
<title>ISYS 380:&#45;&gt;IT 480:</title>
<path fill="none" stroke="black" d="M1286.42,-448.77C1262.99,-423.99 1223,-374.22 1223,-323 1223,-323 1223,-323 1223,-177 1223,-134.21 1202.56,-88.08 1187.81,-60.38"/>
<polygon fill="black" stroke="black" points="1190.76,-58.47 1182.88,-51.39 1184.62,-61.84 1190.76,-58.47"/>
</g>
<!-- ISYS 380&#45;&gt;IT 482 -->
<g id="edge47" class="edge">
<title>ISYS 380:&#45;&gt;IT 482:</title>
<path fill="none" stroke="black" d="M1296.93,-447.76C1288.16,-421.28 1273,-368.86 1273,-323 1273,-323 1273,-323 1273,-177 1273,-136.85 1268.18,-90.55 1264.65,-62.02"/>
<polygon fill="black" stroke="black" points="1268.11,-61.49 1263.37,-52.01 1261.16,-62.37 1268.11,-61.49"/>
</g>
<!-- CS 110 -->
<g id="node46" class="node">
<title>CS 110</title>
<ellipse fill="none" stroke="red" cx="1405" cy="-466" rx="38.19" ry="18"/>
<text text-anchor="middle" x="1405" y="-462.3" font-family="Times New Roman,serif" font-size="14.00">CS 110</text>
</g>
<!-- CS 110&#45;&gt;IT 482 -->
<g id="edge48" class="edge">
<title>CS 110:&#45;&gt;IT 482:</title>
<path fill="none" stroke="black" d="M1396.31,-448.47C1383.48,-422.5 1361,-370.23 1361,-323 1361,-323 1361,-323 1361,-177 1361,-126.29 1317.84,-80.92 1288.23,-55.76"/>
<polygon fill="black" stroke="black" points="1290.22,-52.87 1280.28,-49.21 1285.77,-58.27 1290.22,-52.87"/>
</g>
<!-- MATH 113 -->
<g id="node47" class="node">
<title>MATH 113</title>
<ellipse fill="none" stroke="red" cx="645" cy="-466" rx="52.79" ry="18"/>
<text text-anchor="middle" x="645" y="-462.3" font-family="Times New Roman,serif" font-size="14.00">MATH 113</text>
</g>
<!-- MATH 113&#45;&gt;MATH 121 -->
<g id="edge53" class="edge">
<title>MATH 113:&#45;&gt;MATH 121:</title>
<path fill="none" stroke="black" d="M634.83,-448.05C629.88,-439.8 623.82,-429.7 618.32,-420.54"/>
<polygon fill="black" stroke="black" points="621.22,-418.56 613.07,-411.79 615.22,-422.16 621.22,-418.56"/>
</g>
</g>
</svg>
