<?xml version="1.0" encoding="UTF-8" standalone="no"?>
<!DOCTYPE svg PUBLIC "-//W3C//DTD SVG 1.1//EN"
 "http://www.w3.org/Graphics/SVG/1.1/DTD/svg11.dtd">
<!-- Generated by graphviz version 2.44.2~dev.20201112.1525 (20201112.1525)
 -->
<!-- Title: Courses Tree Diagrams Pages: 1 -->
<svg width="2397pt" height="508pt"
 viewBox="0.00 0.00 2397.00 508.00" xmlns="http://www.w3.org/2000/svg" xmlns:xlink="http://www.w3.org/1999/xlink">
<g id="graph0" class="graph" transform="scale(1 1) rotate(0) translate(4 504)">
<title>Courses Tree Diagrams</title>
<polygon fill="white" stroke="transparent" points="-4,4 -4,-504 2393,-504 2393,4 -4,4"/>
<g id="clust1" class="cluster">
<title>Cluster of Pre &#45; Existing Courses</title>
<polygon fill="none" stroke="black" points="1348,-8 1348,-420 1962,-420 1962,-8 1348,-8"/>
</g>
<g id="clust2" class="cluster">
<title>Cluster of Pre&#45;reqs Lacking Courses</title>
<polygon fill="none" stroke="black" points="8,-152 8,-204 1340,-204 1340,-152 8,-152"/>
</g>
<g id="clust3" class="cluster">
<title>Cluster of non &#45; Existing Courses </title>
<polygon fill="none" stroke="black" points="1026,-440 1026,-492 2381,-492 2381,-440 1026,-440"/>
</g>
<!-- IT 110 -->
<g id="node1" class="node">
<title>IT 110</title>
<ellipse fill="none" stroke="green" cx="1570" cy="-322" rx="35.19" ry="18"/>
<text text-anchor="middle" x="1570" y="-318.3" font-family="Times New Roman,serif" font-size="14.00">IT 110</text>
</g>
<!-- IT 210 -->
<g id="node2" class="node">
<title>IT 210</title>
<ellipse fill="none" stroke="green" cx="1462" cy="-250" rx="35.19" ry="18"/>
<text text-anchor="middle" x="1462" y="-246.3" font-family="Times New Roman,serif" font-size="14.00">IT 210</text>
</g>
<!-- IT 110&#45;&gt;IT 210 -->
<g id="edge5" class="edge">
<title>IT 110:&#45;&gt;IT 210:</title>
<path fill="none" stroke="black" d="M1549.18,-307.5C1532.85,-296.92 1509.91,-282.05 1491.66,-270.22"/>
<polygon fill="black" stroke="black" points="1493.42,-267.2 1483.13,-264.69 1489.62,-273.07 1493.42,-267.2"/>
</g>
<!-- IT 214 -->
<g id="node3" class="node">
<title>IT 214</title>
<ellipse fill="none" stroke="green" cx="1587" cy="-178" rx="35.19" ry="18"/>
<text text-anchor="middle" x="1587" y="-174.3" font-family="Times New Roman,serif" font-size="14.00">IT 214</text>
</g>
<!-- IT 210&#45;&gt;IT 214 -->
<g id="edge7" class="edge">
<title>IT 210:&#45;&gt;IT 214:</title>
<path fill="none" stroke="black" d="M1484.93,-236.16C1504.66,-225.11 1533.34,-209.05 1555.28,-196.77"/>
<polygon fill="black" stroke="black" points="1557.2,-199.7 1564.22,-191.76 1553.78,-193.59 1557.2,-199.7"/>
</g>
<!-- IT 340 -->
<g id="node5" class="node">
<title>IT 340</title>
<ellipse fill="none" stroke="green" cx="1391" cy="-178" rx="35.19" ry="18"/>
<text text-anchor="middle" x="1391" y="-174.3" font-family="Times New Roman,serif" font-size="14.00">IT 340</text>
</g>
<!-- IT 210&#45;&gt;IT 340 -->
<g id="edge15" class="edge">
<title>IT 210:&#45;&gt;IT 340:</title>
<path fill="none" stroke="black" d="M1446.59,-233.81C1437.14,-224.49 1424.86,-212.38 1414.24,-201.91"/>
<polygon fill="black" stroke="black" points="1416.45,-199.17 1406.87,-194.64 1411.53,-204.16 1416.45,-199.17"/>
</g>
<!-- IT 350 -->
<g id="node6" class="node">
<title>IT 350</title>
<ellipse fill="none" stroke="green" cx="1655" cy="-106" rx="35.19" ry="18"/>
<text text-anchor="middle" x="1655" y="-102.3" font-family="Times New Roman,serif" font-size="14.00">IT 350</text>
</g>
<!-- IT 210&#45;&gt;IT 350 -->
<g id="edge17" class="edge">
<title>IT 210:&#45;&gt;IT 350:</title>
<path fill="none" stroke="black" d="M1485.14,-236.36C1497.78,-228.47 1512.87,-217.29 1523,-204 1538.01,-184.31 1525.62,-169.64 1543,-152 1544.44,-150.54 1586.12,-133.99 1618.22,-121.38"/>
<polygon fill="black" stroke="black" points="1619.79,-124.53 1627.82,-117.61 1617.23,-118.01 1619.79,-124.53"/>
</g>
<!-- IT 360 -->
<g id="node7" class="node">
<title>IT 360</title>
<ellipse fill="none" stroke="green" cx="1479" cy="-178" rx="35.19" ry="18"/>
<text text-anchor="middle" x="1479" y="-174.3" font-family="Times New Roman,serif" font-size="14.00">IT 360</text>
</g>
<!-- IT 210&#45;&gt;IT 360 -->
<g id="edge19" class="edge">
<title>IT 210:&#45;&gt;IT 360:</title>
<path fill="none" stroke="black" d="M1466.12,-232.05C1468.01,-224.26 1470.3,-214.82 1472.42,-206.08"/>
<polygon fill="black" stroke="black" points="1475.85,-206.82 1474.8,-196.28 1469.04,-205.17 1475.85,-206.82"/>
</g>
<!-- IT 320 -->
<g id="node4" class="node">
<title>IT 320</title>
<ellipse fill="none" stroke="green" cx="1743" cy="-106" rx="35.19" ry="18"/>
<text text-anchor="middle" x="1743" y="-102.3" font-family="Times New Roman,serif" font-size="14.00">IT 320</text>
</g>
<!-- IT 214&#45;&gt;IT 320 -->
<g id="edge12" class="edge">
<title>IT 214:&#45;&gt;IT 320:</title>
<path fill="none" stroke="black" d="M1610.75,-164.44C1618.72,-160.34 1627.69,-155.86 1636,-152 1659.19,-141.22 1685.68,-130.07 1706.51,-121.57"/>
<polygon fill="black" stroke="black" points="1707.99,-124.74 1715.94,-117.74 1705.35,-118.26 1707.99,-124.74"/>
</g>
<!-- IT 380 -->
<g id="node8" class="node">
<title>IT 380</title>
<ellipse fill="none" stroke="green" cx="1919" cy="-106" rx="35.19" ry="18"/>
<text text-anchor="middle" x="1919" y="-102.3" font-family="Times New Roman,serif" font-size="14.00">IT 380</text>
</g>
<!-- IT 214&#45;&gt;IT 380 -->
<g id="edge21" class="edge">
<title>IT 214:&#45;&gt;IT 380:</title>
<path fill="none" stroke="black" d="M1620.72,-172.87C1674.99,-165.77 1784.73,-149.5 1875,-124 1877.64,-123.25 1880.35,-122.41 1883.05,-121.51"/>
<polygon fill="black" stroke="black" points="1884.5,-124.71 1892.75,-118.06 1882.15,-118.12 1884.5,-124.71"/>
</g>
<!-- IT 440 -->
<g id="node10" class="node">
<title>IT 440</title>
<ellipse fill="none" stroke="green" cx="1831" cy="-106" rx="35.19" ry="18"/>
<text text-anchor="middle" x="1831" y="-102.3" font-family="Times New Roman,serif" font-size="14.00">IT 440</text>
</g>
<!-- IT 214&#45;&gt;IT 440 -->
<g id="edge26" class="edge">
<title>IT 214:&#45;&gt;IT 440:</title>
<path fill="none" stroke="black" d="M1618.49,-169.79C1658.15,-160.44 1728.23,-143.08 1787,-124 1789.54,-123.18 1792.15,-122.28 1794.77,-121.36"/>
<polygon fill="black" stroke="black" points="1796,-124.63 1804.18,-117.9 1793.58,-118.06 1796,-124.63"/>
</g>
<!-- IT 460 -->
<g id="node14" class="node">
<title>IT 460</title>
<ellipse fill="none" stroke="green" cx="1567" cy="-106" rx="35.19" ry="18"/>
<text text-anchor="middle" x="1567" y="-102.3" font-family="Times New Roman,serif" font-size="14.00">IT 460</text>
</g>
<!-- IT 214&#45;&gt;IT 460 -->
<g id="edge38" class="edge">
<title>IT 214:&#45;&gt;IT 460:</title>
<path fill="none" stroke="black" d="M1582.16,-160.05C1579.93,-152.26 1577.23,-142.82 1574.74,-134.08"/>
<polygon fill="black" stroke="black" points="1578.05,-132.93 1571.94,-124.28 1571.32,-134.85 1578.05,-132.93"/>
</g>
<!-- IT 414 -->
<g id="node9" class="node">
<title>IT 414</title>
<ellipse fill="none" stroke="green" cx="1479" cy="-106" rx="35.19" ry="18"/>
<text text-anchor="middle" x="1479" y="-102.3" font-family="Times New Roman,serif" font-size="14.00">IT 414</text>
</g>
<!-- IT 340&#45;&gt;IT 414 -->
<g id="edge24" class="edge">
<title>IT 340:&#45;&gt;IT 414:</title>
<path fill="none" stroke="black" d="M1409.23,-162.5C1421.86,-152.45 1438.85,-138.93 1452.91,-127.75"/>
<polygon fill="black" stroke="black" points="1455.14,-130.45 1460.79,-121.49 1450.78,-124.97 1455.14,-130.45"/>
</g>
<!-- IT 340&#45;&gt;IT 440 -->
<g id="edge27" class="edge">
<title>IT 340:&#45;&gt;IT 440:</title>
<path fill="none" stroke="black" d="M1411.19,-163.08C1418.39,-158.78 1426.77,-154.53 1435,-152 1585.02,-105.92 1633.98,-158.87 1787,-124 1789.84,-123.35 1792.75,-122.55 1795.64,-121.66"/>
<polygon fill="black" stroke="black" points="1797.01,-124.9 1805.33,-118.34 1794.74,-118.27 1797.01,-124.9"/>
</g>
<!-- IT 483 -->
<g id="node18" class="node">
<title>IT 483</title>
<ellipse fill="none" stroke="green" cx="1391" cy="-106" rx="35.19" ry="18"/>
<text text-anchor="middle" x="1391" y="-102.3" font-family="Times New Roman,serif" font-size="14.00">IT 483</text>
</g>
<!-- IT 340&#45;&gt;IT 483 -->
<g id="edge49" class="edge">
<title>IT 340:&#45;&gt;IT 483:</title>
<path fill="none" stroke="black" d="M1391,-159.7C1391,-151.98 1391,-142.71 1391,-134.11"/>
<polygon fill="black" stroke="black" points="1394.5,-134.1 1391,-124.1 1387.5,-134.1 1394.5,-134.1"/>
</g>
<!-- IT 442 -->
<g id="node11" class="node">
<title>IT 442</title>
<ellipse fill="none" stroke="green" cx="1479" cy="-34" rx="35.19" ry="18"/>
<text text-anchor="middle" x="1479" y="-30.3" font-family="Times New Roman,serif" font-size="14.00">IT 442</text>
</g>
<!-- IT 350&#45;&gt;IT 442 -->
<g id="edge30" class="edge">
<title>IT 350:&#45;&gt;IT 442:</title>
<path fill="none" stroke="black" d="M1627.89,-94.22C1597.7,-82.21 1548.75,-62.74 1515.28,-49.43"/>
<polygon fill="black" stroke="black" points="1516.44,-46.13 1505.86,-45.68 1513.85,-52.63 1516.44,-46.13"/>
</g>
<!-- IT 450 -->
<g id="node13" class="node">
<title>IT 450</title>
<ellipse fill="none" stroke="green" cx="1567" cy="-34" rx="35.19" ry="18"/>
<text text-anchor="middle" x="1567" y="-30.3" font-family="Times New Roman,serif" font-size="14.00">IT 450</text>
</g>
<!-- IT 350&#45;&gt;IT 450 -->
<g id="edge36" class="edge">
<title>IT 350:&#45;&gt;IT 450:</title>
<path fill="none" stroke="black" d="M1636.77,-90.5C1624.14,-80.45 1607.15,-66.93 1593.09,-55.75"/>
<polygon fill="black" stroke="black" points="1595.22,-52.97 1585.21,-49.49 1590.86,-58.45 1595.22,-52.97"/>
</g>
<!-- IT 462 -->
<g id="node15" class="node">
<title>IT 462</title>
<ellipse fill="none" stroke="green" cx="1391" cy="-34" rx="35.19" ry="18"/>
<text text-anchor="middle" x="1391" y="-30.3" font-family="Times New Roman,serif" font-size="14.00">IT 462</text>
</g>
<!-- IT 350&#45;&gt;IT 462 -->
<g id="edge41" class="edge">
<title>IT 350:&#45;&gt;IT 462:</title>
<path fill="none" stroke="black" d="M1628.72,-94.03C1622.94,-91.84 1616.82,-89.71 1611,-88 1534.38,-65.53 1511.62,-74.47 1435,-52 1432.36,-51.23 1429.67,-50.37 1426.96,-49.45"/>
<polygon fill="black" stroke="black" points="1427.87,-46.06 1417.28,-45.97 1425.51,-52.65 1427.87,-46.06"/>
</g>
<!-- IT 360&#45;&gt;IT 460 -->
<g id="edge39" class="edge">
<title>IT 360:&#45;&gt;IT 460:</title>
<path fill="none" stroke="black" d="M1497.23,-162.5C1509.86,-152.45 1526.85,-138.93 1540.91,-127.75"/>
<polygon fill="black" stroke="black" points="1543.14,-130.45 1548.79,-121.49 1538.78,-124.97 1543.14,-130.45"/>
</g>
<!-- IT 480 -->
<g id="node16" class="node">
<title>IT 480</title>
<ellipse fill="none" stroke="green" cx="1831" cy="-34" rx="35.19" ry="18"/>
<text text-anchor="middle" x="1831" y="-30.3" font-family="Times New Roman,serif" font-size="14.00">IT 480</text>
</g>
<!-- IT 380&#45;&gt;IT 480 -->
<g id="edge44" class="edge">
<title>IT 380:&#45;&gt;IT 480:</title>
<path fill="none" stroke="black" d="M1900.77,-90.5C1888.14,-80.45 1871.15,-66.93 1857.09,-55.75"/>
<polygon fill="black" stroke="black" points="1859.22,-52.97 1849.21,-49.49 1854.86,-58.45 1859.22,-52.97"/>
</g>
<!-- IT 482 -->
<g id="node17" class="node">
<title>IT 482</title>
<ellipse fill="none" stroke="green" cx="1919" cy="-34" rx="35.19" ry="18"/>
<text text-anchor="middle" x="1919" y="-30.3" font-family="Times New Roman,serif" font-size="14.00">IT 482</text>
</g>
<!-- IT 380&#45;&gt;IT 482 -->
<g id="edge46" class="edge">
<title>IT 380:&#45;&gt;IT 482:</title>
<path fill="none" stroke="black" d="M1919,-87.7C1919,-79.98 1919,-70.71 1919,-62.11"/>
<polygon fill="black" stroke="black" points="1922.5,-62.1 1919,-52.1 1915.5,-62.1 1922.5,-62.1"/>
</g>
<!-- IT 484 -->
<g id="node19" class="node">
<title>IT 484</title>
<ellipse fill="none" stroke="green" cx="1655" cy="-34" rx="35.19" ry="18"/>
<text text-anchor="middle" x="1655" y="-30.3" font-family="Times New Roman,serif" font-size="14.00">IT 484</text>
</g>
<!-- IT 380&#45;&gt;IT 484 -->
<g id="edge50" class="edge">
<title>IT 380:&#45;&gt;IT 484:</title>
<path fill="none" stroke="black" d="M1892.72,-94.03C1886.94,-91.84 1880.82,-89.71 1875,-88 1798.38,-65.53 1775.62,-74.47 1699,-52 1696.36,-51.23 1693.67,-50.37 1690.96,-49.45"/>
<polygon fill="black" stroke="black" points="1691.87,-46.06 1681.28,-45.97 1689.51,-52.65 1691.87,-46.06"/>
</g>
<!-- IT 440&#45;&gt;IT 442 -->
<g id="edge31" class="edge">
<title>IT 440:&#45;&gt;IT 442:</title>
<path fill="none" stroke="black" d="M1804.8,-93.73C1799.02,-91.57 1792.87,-89.51 1787,-88 1672.32,-58.46 1637.68,-81.54 1523,-52 1520.34,-51.32 1517.62,-50.52 1514.91,-49.65"/>
<polygon fill="black" stroke="black" points="1515.79,-46.25 1505.2,-46.27 1513.49,-52.86 1515.79,-46.25"/>
</g>
<!-- IT 444 -->
<g id="node12" class="node">
<title>IT 444</title>
<ellipse fill="none" stroke="green" cx="1743" cy="-34" rx="35.19" ry="18"/>
<text text-anchor="middle" x="1743" y="-30.3" font-family="Times New Roman,serif" font-size="14.00">IT 444</text>
</g>
<!-- IT 440&#45;&gt;IT 444 -->
<g id="edge34" class="edge">
<title>IT 440:&#45;&gt;IT 444:</title>
<path fill="none" stroke="black" d="M1812.77,-90.5C1800.14,-80.45 1783.15,-66.93 1769.09,-55.75"/>
<polygon fill="black" stroke="black" points="1771.22,-52.97 1761.21,-49.49 1766.86,-58.45 1771.22,-52.97"/>
</g>
<!-- IT 460&#45;&gt;IT 462 -->
<g id="edge42" class="edge">
<title>IT 460:&#45;&gt;IT 462:</title>
<path fill="none" stroke="black" d="M1539.89,-94.22C1509.7,-82.21 1460.75,-62.74 1427.28,-49.43"/>
<polygon fill="black" stroke="black" points="1428.44,-46.13 1417.86,-45.68 1425.85,-52.63 1428.44,-46.13"/>
</g>
<!-- MATH 121 -->
<g id="node20" class="node">
<title>MATH 121</title>
<ellipse fill="none" stroke="green" cx="1475" cy="-394" rx="52.79" ry="18"/>
<text text-anchor="middle" x="1475" y="-390.3" font-family="Times New Roman,serif" font-size="14.00">MATH 121</text>
</g>
<!-- MATH 121&#45;&gt;IT 110 -->
<g id="edge3" class="edge">
<title>MATH 121:&#45;&gt;IT 110:</title>
<path fill="none" stroke="black" d="M1496.08,-377.46C1509.7,-367.43 1527.57,-354.27 1542.32,-343.4"/>
<polygon fill="black" stroke="black" points="1544.62,-346.05 1550.59,-337.3 1540.47,-340.41 1544.62,-346.05"/>
</g>
<!-- MATH 121&#45;&gt;IT 214 -->
<g id="edge8" class="edge">
<title>MATH 121:&#45;&gt;IT 214:</title>
<path fill="none" stroke="black" d="M1477.32,-375.7C1482.14,-344.7 1495.42,-278.56 1526,-232 1534.37,-219.26 1546.62,-207.79 1557.95,-198.8"/>
<polygon fill="black" stroke="black" points="1560.12,-201.55 1565.97,-192.72 1555.89,-195.98 1560.12,-201.55"/>
</g>
<!-- MATH 180 -->
<g id="node21" class="node">
<title>MATH 180</title>
<ellipse fill="none" stroke="green" cx="1588" cy="-250" rx="52.79" ry="18"/>
<text text-anchor="middle" x="1588" y="-246.3" font-family="Times New Roman,serif" font-size="14.00">MATH 180</text>
</g>
<!-- MATH 180&#45;&gt;IT 214 -->
<g id="edge9" class="edge">
<title>MATH 180:&#45;&gt;IT 214:</title>
<path fill="none" stroke="black" d="M1587.75,-231.7C1587.64,-223.98 1587.51,-214.71 1587.39,-206.11"/>
<polygon fill="black" stroke="black" points="1590.89,-206.05 1587.24,-196.1 1583.89,-206.15 1590.89,-206.05"/>
</g>
<!-- MATH 180&#45;&gt;IT 320 -->
<g id="edge13" class="edge">
<title>MATH 180:&#45;&gt;IT 320:</title>
<path fill="none" stroke="black" d="M1605.48,-232.99C1633.21,-207.58 1687.37,-157.96 1718.82,-129.16"/>
<polygon fill="black" stroke="black" points="1721.28,-131.64 1726.29,-122.31 1716.55,-126.48 1721.28,-131.64"/>
</g>
<!-- ENG 101 -->
<g id="node22" class="node">
<title>ENG 101</title>
<ellipse fill="none" stroke="green" cx="1287" cy="-178" rx="44.69" ry="18"/>
<text text-anchor="middle" x="1287" y="-174.3" font-family="Times New Roman,serif" font-size="14.00">ENG 101</text>
</g>
<!-- IT 310 -->
<g id="node23" class="node">
<title>IT 310</title>
<ellipse fill="none" stroke="green" cx="1189" cy="-178" rx="35.19" ry="18"/>
<text text-anchor="middle" x="1189" y="-174.3" font-family="Times New Roman,serif" font-size="14.00">IT 310</text>
</g>
<!-- IT 310&#45;&gt;IT 414 -->
<g id="edge23" class="edge">
<title>IT 310:&#45;&gt;IT 414:</title>
<path fill="none" stroke="black" d="M1209.72,-163.09C1216.83,-158.9 1225.01,-154.71 1233,-152 1318.83,-122.87 1347.25,-146.71 1435,-124 1437.66,-123.31 1440.38,-122.51 1443.09,-121.64"/>
<polygon fill="black" stroke="black" points="1444.51,-124.85 1452.8,-118.26 1442.21,-118.24 1444.51,-124.85"/>
</g>
<!-- IT 311 -->
<g id="node24" class="node">
<title>IT 311</title>
<ellipse fill="none" stroke="green" cx="1101" cy="-178" rx="35.19" ry="18"/>
<text text-anchor="middle" x="1101" y="-174.3" font-family="Times New Roman,serif" font-size="14.00">IT 311</text>
</g>
<!-- IT 412 -->
<g id="node25" class="node">
<title>IT 412</title>
<ellipse fill="none" stroke="green" cx="1013" cy="-178" rx="35.19" ry="18"/>
<text text-anchor="middle" x="1013" y="-174.3" font-family="Times New Roman,serif" font-size="14.00">IT 412</text>
</g>
<!-- IT 430 -->
<g id="node26" class="node">
<title>IT 430</title>
<ellipse fill="none" stroke="green" cx="925" cy="-178" rx="35.19" ry="18"/>
<text text-anchor="middle" x="925" y="-174.3" font-family="Times New Roman,serif" font-size="14.00">IT 430</text>
</g>
<!-- IT 432 -->
<g id="node27" class="node">
<title>IT 432</title>
<ellipse fill="none" stroke="green" cx="837" cy="-178" rx="35.19" ry="18"/>
<text text-anchor="middle" x="837" y="-174.3" font-family="Times New Roman,serif" font-size="14.00">IT 432</text>
</g>
<!-- IT 464 -->
<g id="node28" class="node">
<title>IT 464</title>
<ellipse fill="none" stroke="green" cx="749" cy="-178" rx="35.19" ry="18"/>
<text text-anchor="middle" x="749" y="-174.3" font-family="Times New Roman,serif" font-size="14.00">IT 464</text>
</g>
<!-- IT 488 -->
<g id="node29" class="node">
<title>IT 488</title>
<ellipse fill="none" stroke="green" cx="661" cy="-178" rx="35.19" ry="18"/>
<text text-anchor="middle" x="661" y="-174.3" font-family="Times New Roman,serif" font-size="14.00">IT 488</text>
</g>
<!-- IT 496 -->
<g id="node30" class="node">
<title>IT 496</title>
<ellipse fill="none" stroke="green" cx="573" cy="-178" rx="35.19" ry="18"/>
<text text-anchor="middle" x="573" y="-174.3" font-family="Times New Roman,serif" font-size="14.00">IT 496</text>
</g>
<!-- IT 497 -->
<g id="node31" class="node">
<title>IT 497</title>
<ellipse fill="none" stroke="green" cx="485" cy="-178" rx="35.19" ry="18"/>
<text text-anchor="middle" x="485" y="-174.3" font-family="Times New Roman,serif" font-size="14.00">IT 497</text>
</g>
<!-- IT 499 -->
<g id="node32" class="node">
<title>IT 499</title>
<ellipse fill="none" stroke="green" cx="397" cy="-178" rx="35.19" ry="18"/>
<text text-anchor="middle" x="397" y="-174.3" font-family="Times New Roman,serif" font-size="14.00">IT 499</text>
</g>
<!-- SPEE 100 -->
<g id="node33" class="node">
<title>SPEE 100</title>
<ellipse fill="none" stroke="green" cx="296" cy="-178" rx="48.19" ry="18"/>
<text text-anchor="middle" x="296" y="-174.3" font-family="Times New Roman,serif" font-size="14.00">SPEE 100</text>
</g>
<!-- SPEE 233 -->
<g id="node34" class="node">
<title>SPEE 233</title>
<ellipse fill="none" stroke="green" cx="182" cy="-178" rx="48.19" ry="18"/>
<text text-anchor="middle" x="182" y="-174.3" font-family="Times New Roman,serif" font-size="14.00">SPEE 233</text>
</g>
<!-- STAT 154 -->
<g id="node35" class="node">
<title>STAT 154</title>
<ellipse fill="none" stroke="green" cx="66" cy="-178" rx="50.09" ry="18"/>
<text text-anchor="middle" x="66" y="-174.3" font-family="Times New Roman,serif" font-size="14.00">STAT 154</text>
</g>
<!-- MATH 112 -->
<g id="node36" class="node">
<title>MATH 112</title>
<ellipse fill="none" stroke="red" cx="1553" cy="-466" rx="52.79" ry="18"/>
<text text-anchor="middle" x="1553" y="-462.3" font-family="Times New Roman,serif" font-size="14.00">MATH 112</text>
</g>
<!-- MATH 112&#45;&gt;IT 110 -->
<g id="edge1" class="edge">
<title>MATH 112:&#45;&gt;IT 110:</title>
<path fill="none" stroke="black" d="M1561.13,-447.9C1564.61,-439.66 1568.26,-429.53 1570,-420 1574.26,-396.66 1573.83,-369.62 1572.58,-350.03"/>
<polygon fill="black" stroke="black" points="1576.07,-349.7 1571.83,-339.99 1569.09,-350.22 1576.07,-349.7"/>
</g>
<!-- MATH 112&#45;&gt;MATH 121 -->
<g id="edge52" class="edge">
<title>MATH 112:&#45;&gt;MATH 121:</title>
<path fill="none" stroke="black" d="M1534.91,-448.76C1524.67,-439.58 1511.7,-427.94 1500.45,-417.84"/>
<polygon fill="black" stroke="black" points="1502.77,-415.22 1492.99,-411.15 1498.1,-420.43 1502.77,-415.22"/>
</g>
<!-- MATH 112&#45;&gt;MATH 180 -->
<g id="edge54" class="edge">
<title>MATH 112:&#45;&gt;MATH 180:</title>
<path fill="none" stroke="black" d="M1521.97,-451.3C1512.46,-447.36 1501.89,-443.26 1492,-440 1457.6,-428.66 1435.25,-448.58 1413,-420 1400.99,-404.57 1404.05,-393.39 1413,-376 1440.48,-322.61 1502.5,-286.96 1544.82,-267.84"/>
<polygon fill="black" stroke="black" points="1546.31,-271.01 1554.06,-263.79 1543.5,-264.6 1546.31,-271.01"/>
</g>
<!-- MATH 115 -->
<g id="node37" class="node">
<title>MATH 115</title>
<ellipse fill="none" stroke="red" cx="1676" cy="-466" rx="52.79" ry="18"/>
<text text-anchor="middle" x="1676" y="-462.3" font-family="Times New Roman,serif" font-size="14.00">MATH 115</text>
</g>
<!-- MATH 115&#45;&gt;IT 110 -->
<g id="edge2" class="edge">
<title>MATH 115:&#45;&gt;IT 110:</title>
<path fill="none" stroke="black" d="M1663.63,-448.43C1645.02,-423.5 1609.71,-376.2 1588.17,-347.34"/>
<polygon fill="black" stroke="black" points="1590.75,-344.95 1581.96,-339.03 1585.14,-349.13 1590.75,-344.95"/>
</g>
<!-- MATH 115&#45;&gt;MATH 121 -->
<g id="edge51" class="edge">
<title>MATH 115:&#45;&gt;MATH 121:</title>
<path fill="none" stroke="black" d="M1644.52,-451.55C1635.09,-447.67 1624.68,-443.53 1615,-440 1584.67,-428.93 1550.14,-417.81 1522.96,-409.4"/>
<polygon fill="black" stroke="black" points="1523.89,-406.02 1513.3,-406.43 1521.83,-412.71 1523.89,-406.02"/>
</g>
<!-- MATH 181 -->
<g id="node38" class="node">
<title>MATH 181</title>
<ellipse fill="none" stroke="red" cx="1307" cy="-466" rx="52.79" ry="18"/>
<text text-anchor="middle" x="1307" y="-462.3" font-family="Times New Roman,serif" font-size="14.00">MATH 181</text>
</g>
<!-- MATH 181&#45;&gt;IT 110 -->
<g id="edge4" class="edge">
<title>MATH 181:&#45;&gt;IT 110:</title>
<path fill="none" stroke="black" d="M1336.54,-451.01C1346.36,-446.87 1357.47,-442.73 1368,-440 1404.61,-430.52 1507.6,-443.79 1537,-420 1557.8,-403.17 1565.55,-372.64 1568.4,-350.31"/>
<polygon fill="black" stroke="black" points="1571.91,-350.41 1569.45,-340.11 1564.95,-349.7 1571.91,-350.41"/>
</g>
<!-- MATH 181&#45;&gt;IT 214 -->
<g id="edge10" class="edge">
<title>MATH 181:&#45;&gt;IT 214:</title>
<path fill="none" stroke="black" d="M1310.05,-447.93C1318.67,-404.8 1347.36,-290.71 1418,-232 1455.14,-201.13 1477.1,-219.03 1523,-204 1532.24,-200.97 1542.09,-197.34 1551.21,-193.79"/>
<polygon fill="black" stroke="black" points="1552.76,-196.94 1560.77,-190.01 1550.19,-190.43 1552.76,-196.94"/>
</g>
<!-- ISYS 110 -->
<g id="node39" class="node">
<title>ISYS 110</title>
<ellipse fill="none" stroke="red" cx="1190" cy="-466" rx="46.29" ry="18"/>
<text text-anchor="middle" x="1190" y="-462.3" font-family="Times New Roman,serif" font-size="14.00">ISYS 110</text>
</g>
<!-- ISYS 110&#45;&gt;IT 210 -->
<g id="edge6" class="edge">
<title>ISYS 110:&#45;&gt;IT 210:</title>
<path fill="none" stroke="black" d="M1209.56,-449.61C1257.55,-411.86 1381.13,-314.63 1435.57,-271.79"/>
<polygon fill="black" stroke="black" points="1438,-274.34 1443.69,-265.4 1433.67,-268.83 1438,-274.34"/>
</g>
<!-- ISYS 210 -->
<g id="node40" class="node">
<title>ISYS 210</title>
<ellipse fill="none" stroke="red" cx="1080" cy="-466" rx="46.29" ry="18"/>
<text text-anchor="middle" x="1080" y="-462.3" font-family="Times New Roman,serif" font-size="14.00">ISYS 210</text>
</g>
<!-- ISYS 210&#45;&gt;IT 214 -->
<g id="edge11" class="edge">
<title>ISYS 210:&#45;&gt;IT 214:</title>
<path fill="none" stroke="black" d="M1098.1,-449.3C1153.19,-401.79 1318.96,-261.1 1383,-232 1440.77,-205.75 1462.1,-221.83 1523,-204 1532.52,-201.21 1542.6,-197.6 1551.88,-193.99"/>
<polygon fill="black" stroke="black" points="1553.21,-197.23 1561.2,-190.27 1550.62,-190.73 1553.21,-197.23"/>
</g>
<!-- ISYS 210&#45;&gt;IT 340 -->
<g id="edge16" class="edge">
<title>ISYS 210:&#45;&gt;IT 340:</title>
<path fill="none" stroke="black" d="M1080.23,-447.95C1081.83,-404.36 1092.53,-288.32 1160,-232 1223.5,-178.99 1265.48,-230.02 1344,-204 1349.37,-202.22 1354.87,-199.86 1360.11,-197.3"/>
<polygon fill="black" stroke="black" points="1361.96,-200.28 1369.21,-192.56 1358.73,-194.08 1361.96,-200.28"/>
</g>
<!-- ISYS 210&#45;&gt;IT 350 -->
<g id="edge18" class="edge">
<title>ISYS 210:&#45;&gt;IT 350:</title>
<path fill="none" stroke="black" d="M1105.58,-450.96C1114.61,-446.66 1125.01,-442.43 1135,-440 1221.92,-418.9 1452.67,-449.82 1537,-420 1605.98,-395.61 1670,-396.16 1670,-323 1670,-323 1670,-323 1670,-249 1670,-208.77 1663.97,-162.49 1659.56,-133.99"/>
<polygon fill="black" stroke="black" points="1663,-133.31 1657.96,-123.99 1656.08,-134.41 1663,-133.31"/>
</g>
<!-- ISYS 210&#45;&gt;IT 360 -->
<g id="edge20" class="edge">
<title>ISYS 210:&#45;&gt;IT 360:</title>
<path fill="none" stroke="black" d="M1087.88,-447.93C1111.78,-396.51 1183.03,-245.74 1203,-232 1288.57,-173.13 1336.36,-236.51 1435,-204 1439.98,-202.36 1445.04,-200.12 1449.85,-197.66"/>
<polygon fill="black" stroke="black" points="1451.7,-200.64 1458.75,-192.73 1448.31,-194.51 1451.7,-200.64"/>
</g>
<!-- ISYS 215 -->
<g id="node41" class="node">
<title>ISYS 215</title>
<ellipse fill="none" stroke="red" cx="1793" cy="-466" rx="46.29" ry="18"/>
<text text-anchor="middle" x="1793" y="-462.3" font-family="Times New Roman,serif" font-size="14.00">ISYS 215</text>
</g>
<!-- ISYS 215&#45;&gt;IT 320 -->
<g id="edge14" class="edge">
<title>ISYS 215:&#45;&gt;IT 320:</title>
<path fill="none" stroke="black" d="M1790.59,-447.73C1782.55,-390.19 1756.64,-204.66 1746.82,-134.35"/>
<polygon fill="black" stroke="black" points="1750.24,-133.51 1745.39,-124.09 1743.3,-134.48 1750.24,-133.51"/>
</g>
<!-- ISYS 215&#45;&gt;IT 380 -->
<g id="edge22" class="edge">
<title>ISYS 215:&#45;&gt;IT 380:</title>
<path fill="none" stroke="black" d="M1801.9,-448.15C1806.14,-439.8 1811.12,-429.5 1815,-420 1857.32,-316.38 1895.65,-188.52 1911.4,-133.84"/>
<polygon fill="black" stroke="black" points="1914.86,-134.49 1914.25,-123.91 1908.13,-132.56 1914.86,-134.49"/>
</g>
<!-- ISYS 215&#45;&gt;IT 440 -->
<g id="edge29" class="edge">
<title>ISYS 215:&#45;&gt;IT 440:</title>
<path fill="none" stroke="black" d="M1794.83,-447.73C1800.94,-390.19 1820.63,-204.66 1828.1,-134.35"/>
<polygon fill="black" stroke="black" points="1831.61,-134.41 1829.19,-124.09 1824.65,-133.67 1831.61,-134.41"/>
</g>
<!-- ISYS 215&#45;&gt;IT 460 -->
<g id="edge40" class="edge">
<title>ISYS 215:&#45;&gt;IT 460:</title>
<path fill="none" stroke="black" d="M1775.39,-448.97C1750.49,-424.46 1708,-375 1708,-323 1708,-323 1708,-323 1708,-249 1708,-188.76 1643.32,-144.98 1601.57,-123"/>
<polygon fill="black" stroke="black" points="1603.03,-119.81 1592.53,-118.39 1599.85,-126.05 1603.03,-119.81"/>
</g>
<!-- ISYS 340 -->
<g id="node42" class="node">
<title>ISYS 340</title>
<ellipse fill="none" stroke="red" cx="1903" cy="-466" rx="46.29" ry="18"/>
<text text-anchor="middle" x="1903" y="-462.3" font-family="Times New Roman,serif" font-size="14.00">ISYS 340</text>
</g>
<!-- ISYS 340&#45;&gt;IT 414 -->
<g id="edge25" class="edge">
<title>ISYS 340:&#45;&gt;IT 414:</title>
<path fill="none" stroke="black" d="M1893.59,-448.31C1863.09,-395.81 1761.36,-232.74 1631,-152 1588.84,-125.89 1570.21,-139.18 1523,-124 1520.46,-123.18 1517.85,-122.3 1515.23,-121.37"/>
<polygon fill="black" stroke="black" points="1516.41,-118.08 1505.82,-117.92 1514,-124.65 1516.41,-118.08"/>
</g>
<!-- ISYS 340&#45;&gt;IT 440 -->
<g id="edge28" class="edge">
<title>ISYS 340:&#45;&gt;IT 440:</title>
<path fill="none" stroke="black" d="M1901.64,-447.96C1899.12,-418.45 1893.04,-355.99 1883,-304 1871.07,-242.25 1850.63,-171.26 1839.26,-133.64"/>
<polygon fill="black" stroke="black" points="1842.57,-132.49 1836.3,-123.95 1835.87,-134.54 1842.57,-132.49"/>
</g>
<!-- ISYS 441 -->
<g id="node43" class="node">
<title>ISYS 441</title>
<ellipse fill="none" stroke="red" cx="2013" cy="-466" rx="46.29" ry="18"/>
<text text-anchor="middle" x="2013" y="-462.3" font-family="Times New Roman,serif" font-size="14.00">ISYS 441</text>
</g>
<!-- ISYS 441&#45;&gt;IT 442 -->
<g id="edge32" class="edge">
<title>ISYS 441:&#45;&gt;IT 442:</title>
<path fill="none" stroke="black" d="M2017.19,-447.88C2030.73,-388.03 2066.58,-186.51 1963,-88 1891.91,-20.39 1618.63,-73.9 1523,-52 1520.16,-51.35 1517.25,-50.55 1514.36,-49.66"/>
<polygon fill="black" stroke="black" points="1515.27,-46.27 1504.67,-46.33 1512.99,-52.89 1515.27,-46.27"/>
</g>
<!-- ISYS 441&#45;&gt;IT 444 -->
<g id="edge35" class="edge">
<title>ISYS 441:&#45;&gt;IT 444:</title>
<path fill="none" stroke="black" d="M2023.8,-448.13C2059.57,-389.93 2166.63,-195.34 2072,-88 2029.78,-40.12 1848.9,-67.62 1787,-52 1784.34,-51.33 1781.62,-50.54 1778.9,-49.68"/>
<polygon fill="black" stroke="black" points="1779.78,-46.28 1769.19,-46.31 1777.49,-52.89 1779.78,-46.28"/>
</g>
<!-- ISYS 350 -->
<g id="node44" class="node">
<title>ISYS 350</title>
<ellipse fill="none" stroke="red" cx="2123" cy="-466" rx="46.29" ry="18"/>
<text text-anchor="middle" x="2123" y="-462.3" font-family="Times New Roman,serif" font-size="14.00">ISYS 350</text>
</g>
<!-- ISYS 350&#45;&gt;IT 442 -->
<g id="edge33" class="edge">
<title>ISYS 350:&#45;&gt;IT 442:</title>
<path fill="none" stroke="black" d="M2123.71,-447.77C2125.22,-384.83 2120.77,-166.96 1992,-88 1902.89,-33.36 1624.95,-75.08 1523,-52 1520.15,-51.36 1517.25,-50.56 1514.36,-49.67"/>
<polygon fill="black" stroke="black" points="1515.26,-46.28 1504.67,-46.36 1512.99,-52.91 1515.26,-46.28"/>
</g>
<!-- ISYS 350&#45;&gt;IT 450 -->
<g id="edge37" class="edge">
<title>ISYS 350:&#45;&gt;IT 450:</title>
<path fill="none" stroke="black" d="M2127.29,-447.71C2141.14,-387.3 2177.86,-184.13 2072,-88 2033.97,-53.46 1661.1,-63.38 1611,-52 1608.16,-51.35 1605.25,-50.56 1602.36,-49.67"/>
<polygon fill="black" stroke="black" points="1603.26,-46.28 1592.67,-46.35 1600.99,-52.9 1603.26,-46.28"/>
</g>
<!-- ISYS 350&#45;&gt;IT 462 -->
<g id="edge43" class="edge">
<title>ISYS 350:&#45;&gt;IT 462:</title>
<path fill="none" stroke="black" d="M2118.31,-447.88C2099.41,-380.3 2026.86,-133.47 1963,-88 1867.2,-19.79 1549.81,-77.48 1435,-52 1432.15,-51.37 1429.24,-50.58 1426.35,-49.7"/>
<polygon fill="black" stroke="black" points="1427.25,-46.31 1416.66,-46.39 1424.99,-52.93 1427.25,-46.31"/>
</g>
<!-- ISYS 380 -->
<g id="node45" class="node">
<title>ISYS 380</title>
<ellipse fill="none" stroke="red" cx="2233" cy="-466" rx="46.29" ry="18"/>
<text text-anchor="middle" x="2233" y="-462.3" font-family="Times New Roman,serif" font-size="14.00">ISYS 380</text>
</g>
<!-- ISYS 380&#45;&gt;IT 480 -->
<g id="edge45" class="edge">
<title>ISYS 380:&#45;&gt;IT 480:</title>
<path fill="none" stroke="black" d="M2222.88,-448.19C2208.27,-422.27 2183,-370.57 2183,-323 2183,-323 2183,-323 2183,-177 2183,-122.3 2146.41,-113.46 2098,-88 2009.15,-41.26 1971.91,-78.23 1875,-52 1872.35,-51.28 1869.64,-50.46 1866.93,-49.58"/>
<polygon fill="black" stroke="black" points="1867.82,-46.18 1857.23,-46.16 1865.5,-52.78 1867.82,-46.18"/>
</g>
<!-- ISYS 380&#45;&gt;IT 482 -->
<g id="edge47" class="edge">
<title>ISYS 380:&#45;&gt;IT 482:</title>
<path fill="none" stroke="black" d="M2231.81,-447.96C2230.07,-421.31 2227,-368.15 2227,-323 2227,-323 2227,-323 2227,-177 2227,-135.26 2228.46,-115.43 2197,-88 2162.83,-58.21 2033.48,-43.83 1963.92,-38.12"/>
<polygon fill="black" stroke="black" points="1963.94,-34.61 1953.7,-37.31 1963.39,-41.59 1963.94,-34.61"/>
</g>
<!-- CS 110 -->
<g id="node46" class="node">
<title>CS 110</title>
<ellipse fill="none" stroke="red" cx="2335" cy="-466" rx="38.19" ry="18"/>
<text text-anchor="middle" x="2335" y="-462.3" font-family="Times New Roman,serif" font-size="14.00">CS 110</text>
</g>
<!-- CS 110&#45;&gt;IT 482 -->
<g id="edge48" class="edge">
<title>CS 110:&#45;&gt;IT 482:</title>
<path fill="none" stroke="black" d="M2328.09,-448.28C2317.89,-422.06 2300,-369.46 2300,-323 2300,-323 2300,-323 2300,-177 2300,-124.98 2269.19,-113.76 2224,-88 2180.27,-63.08 2037.28,-46.25 1963.67,-39.02"/>
<polygon fill="black" stroke="black" points="1963.62,-35.5 1953.33,-38.02 1962.95,-42.47 1963.62,-35.5"/>
</g>
<!-- MATH 113 -->
<g id="node47" class="node">
<title>MATH 113</title>
<ellipse fill="none" stroke="red" cx="1430" cy="-466" rx="52.79" ry="18"/>
<text text-anchor="middle" x="1430" y="-462.3" font-family="Times New Roman,serif" font-size="14.00">MATH 113</text>
</g>
<!-- MATH 113&#45;&gt;MATH 121 -->
<g id="edge53" class="edge">
<title>MATH 113:&#45;&gt;MATH 121:</title>
<path fill="none" stroke="black" d="M1440.89,-448.05C1446.25,-439.71 1452.83,-429.49 1458.77,-420.25"/>
<polygon fill="black" stroke="black" points="1461.74,-422.09 1464.21,-411.79 1455.86,-418.31 1461.74,-422.09"/>
</g>
</g>
</svg>
